<?xml version="1.0" encoding="UTF-8"?>
<svg version="1.1" xmlns="http://www.w3.org/2000/svg" width="1024" height="206">
<path d="M0 0 C5.26526855 -0.07457346 10.53022455 -0.12880098 15.79589844 -0.16479492 C17.58436443 -0.17981184 19.37279403 -0.20023158 21.16113281 -0.22631836 C23.74293031 -0.26301615 26.32423779 -0.27979745 28.90625 -0.29296875 C29.69616333 -0.30845261 30.48607666 -0.32393646 31.29992676 -0.33988953 C38.0500987 -0.34190159 43.49155571 0.98233829 48.875 5.3125 C52.13964799 9.44131951 53.27297508 12.85031399 52.8125 18.0625 C51.79863921 24.18062543 48.96341161 27.40152658 44 31 C43.01 31.66 42.02 32.32 41 33 C41.44802979 33.33233643 41.89605957 33.66467285 42.35766602 34.00708008 C47.35326424 37.95713438 50.12698273 42.02247475 52.9375 47.6875 C53.33517578 48.44611328 53.73285156 49.20472656 54.14257812 49.98632812 C57 55.55854669 57 55.55854669 57 59 C50.4 59 43.8 59 37 59 C32.25 50.3125 32.25 50.3125 30.77832031 47.6027832 C27.17326064 40.045917 27.17326064 40.045917 20.87988281 35.3762207 C20.25952148 35.25206787 19.63916016 35.12791504 19 35 C19.00785522 36.0372522 19.00785522 36.0372522 19.01586914 37.09545898 C19.036575 40.20946352 19.04963963 43.32345361 19.0625 46.4375 C19.07087891 47.52611328 19.07925781 48.61472656 19.08789062 49.73632812 C19.09272461 51.28803711 19.09272461 51.28803711 19.09765625 52.87109375 C19.10551147 54.30859985 19.10551147 54.30859985 19.11352539 55.77514648 C19 58 19 58 18 59 C15.15664952 59.09986975 12.34302837 59.13877881 9.5 59.125 C8.70207031 59.12886719 7.90414062 59.13273437 7.08203125 59.13671875 C1.12660767 59.12660767 1.12660767 59.12660767 0 58 C-0.09376053 56.18944975 -0.1174411 54.37522799 -0.11352539 52.56225586 C-0.11344986 51.40112778 -0.11337433 50.23999969 -0.11329651 49.04368591 C-0.10813522 47.780168 -0.10297394 46.51665009 -0.09765625 45.21484375 C-0.0962413 43.92888809 -0.09482635 42.64293243 -0.09336853 41.31800842 C-0.08954418 37.89356557 -0.07971462 34.46916491 -0.06866455 31.04473877 C-0.05844864 27.55261811 -0.05387053 24.06049066 -0.04882812 20.56835938 C-0.03809227 13.71222222 -0.02101684 6.85611313 0 0 Z M19 12 C19 15.63 19 19.26 19 23 C26.22358742 23.64082804 26.22358742 23.64082804 32.75 21.3125 C34.2080387 19.053248 34.2080387 19.053248 34 16.375 C33.22458557 13.91713534 33.22458557 13.91713534 31.265625 12.859375 C28.60894073 11.85166717 26.58230327 11.8004657 23.75 11.875 C21.39875 11.936875 21.39875 11.936875 19 12 Z " fill="#000000" transform="translate(841,74)"/>
<path d="M0 0 C5.94 0 11.88 0 18 0 C18 6.6 18 13.2 18 20 C23.94 20 29.88 20 36 20 C36.33 13.4 36.66 6.8 37 0 C43.27 0 49.54 0 56 0 C56.02255549 7.54498589 56.04091769 15.08995931 56.05181217 22.63497066 C56.05703989 26.13808885 56.0641355 29.64118285 56.07543945 33.14428711 C56.08834206 37.16780841 56.09322912 41.19130414 56.09765625 45.21484375 C56.10281754 46.47836166 56.10797882 47.74187958 56.11329651 49.04368591 C56.11337204 50.204814 56.11344757 51.36594208 56.11352539 52.56225586 C56.115746 53.59039902 56.11796661 54.61854218 56.12025452 55.67784119 C56 58 56 58 55 59 C52.15664952 59.09986975 49.34302837 59.13877881 46.5 59.125 C45.30310547 59.13080078 45.30310547 59.13080078 44.08203125 59.13671875 C38.12660767 59.12660767 38.12660767 59.12660767 37 58 C36.91286169 56.29227642 36.89299993 54.58101351 36.90234375 52.87109375 C36.90556641 51.83662109 36.90878906 50.80214844 36.91210938 49.73632812 C36.92467773 48.1034082 36.92467773 48.1034082 36.9375 46.4375 C36.94201172 45.34501953 36.94652344 44.25253906 36.95117188 43.12695312 C36.9630016 40.41794568 36.98093769 37.7089662 37 35 C30.73 35 24.46 35 18 35 C18.12568359 37.47306641 18.12568359 37.47306641 18.25390625 39.99609375 C18.35704313 42.1432161 18.45989294 44.29035226 18.5625 46.4375 C18.61857422 47.52611328 18.67464844 48.61472656 18.73242188 49.73632812 C18.78076172 50.77080078 18.82910156 51.80527344 18.87890625 52.87109375 C18.9260376 53.82943115 18.97316895 54.78776855 19.02172852 55.77514648 C19 58 19 58 18 59 C12.06 59 6.12 59 0 59 C0 39.53 0 20.06 0 0 Z " fill="#000000" transform="translate(128,74)"/>
<path d="M0 0 C7.59568013 8.31907824 9.03344683 17.22108582 8.83203125 28.109375 C8.39485254 36.06107826 6.05011421 41.33711288 0.59765625 47.1484375 C-7.72213436 54.43031364 -17.69747293 54.49029487 -28.20507812 54.05859375 C-34.16265126 53.55453266 -38.59347318 51.30022145 -43.1875 47.625 C-50.96703101 37.84501816 -52.34806891 29.48402034 -51.64013672 17.11914062 C-50.79159015 9.93696742 -47.0867342 3.86252055 -41.5625 -0.6875 C-28.49835422 -9.02788685 -12.94807562 -8.15249206 0 0 Z M-30.375 10.875 C-34.35282649 16.97433395 -34.04986525 23.78891483 -33.375 30.875 C-31.86206975 35.26249772 -30.26495465 37.42909601 -26.375 39.875 C-22.97081431 40.53923135 -19.79014431 40.46171847 -16.375 39.875 C-12.15496835 36.88581091 -10.43626756 33.89190119 -9.375 28.875 C-8.67850033 22.18362819 -9.35982771 15.64837351 -13.7109375 10.203125 C-18.5671614 6.32726555 -25.71916003 7.32769336 -30.375 10.875 Z " fill="#000000" transform="translate(822.375,79.125)"/>
<path d="M0 0 C15.84 0 31.68 0 48 0 C48 3.96 48 7.92 48 12 C47 13 47 13 44.22436523 13.11352539 C43.01466064 13.10828857 41.80495605 13.10305176 40.55859375 13.09765625 C39.25341797 13.09443359 37.94824219 13.09121094 36.60351562 13.08789062 C35.2148431 13.07953401 33.82617123 13.07106905 32.4375 13.0625 C31.04492344 13.05748666 29.65234519 13.05292347 28.25976562 13.04882812 C24.8398013 13.03699434 21.41992156 13.0205088 18 13 C18 15.97 18 18.94 18 22 C18.69222656 21.9278125 19.38445312 21.855625 20.09765625 21.78125 C28.38691539 20.99491712 36.6760649 20.62613766 45 21 C48.07318149 24.07318149 46 29.65386506 46 34 C37.09 34 28.18 34 19 34 C18.67 37.63 18.34 41.26 18 45 C19.485 44.505 19.485 44.505 21 44 C23.05297843 43.90523615 25.10889918 43.8692776 27.1640625 43.8671875 C28.36804688 43.86589844 29.57203125 43.86460938 30.8125 43.86328125 C32.6996875 43.86908203 32.6996875 43.86908203 34.625 43.875 C36.52378906 43.86919922 36.52378906 43.86919922 38.4609375 43.86328125 C39.66234375 43.86457031 40.86375 43.86585937 42.1015625 43.8671875 C43.76179443 43.86887939 43.76179443 43.86887939 45.45556641 43.87060547 C48 44 48 44 49 45 C49.0989294 47.16480797 49.129711 49.33293785 49.125 51.5 C49.12886719 53.27890625 49.12886719 53.27890625 49.1328125 55.09375 C49 58 49 58 48 59 C46.49581261 59.09311889 44.98728644 59.11746028 43.48022461 59.11352539 C42.50581421 59.11340454 41.53140381 59.11328369 40.52746582 59.11315918 C39.49617554 59.10804321 38.46488525 59.10292725 37.40234375 59.09765625 C35.98846375 59.09614563 35.98846375 59.09614563 34.54602051 59.09460449 C31.00983471 59.08935477 27.47366619 59.07539364 23.9375 59.0625 C16.038125 59.041875 8.13875 59.02125 0 59 C0 39.53 0 20.06 0 0 Z " fill="#000000" transform="translate(196,74)"/>
<path d="M0 0 C5.94 0 11.88 0 18 0 C18.03738281 2.60132812 18.07476562 5.20265625 18.11328125 7.8828125 C18.15955255 10.41479686 18.21076572 12.94663667 18.26245117 15.47851562 C18.2956122 17.23200627 18.32367142 18.98560138 18.34643555 20.73925781 C18.3801447 23.26672698 18.43246692 25.79324638 18.48828125 28.3203125 C18.49467117 29.09867462 18.5010611 29.87703674 18.50764465 30.6789856 C18.63542131 35.45791709 19.30083639 38.89134835 22 43 C26.64398011 44.54799337 31.32517708 44.49594333 36 43 C36.76052961 40.27136449 37.14101917 37.79515668 37.20532227 34.96582031 C37.22526749 34.18531311 37.24521271 33.40480591 37.26576233 32.60064697 C37.28247482 31.76821472 37.29918732 30.93578247 37.31640625 30.078125 C37.33718735 29.21813904 37.35796844 28.35815308 37.37937927 27.47210693 C37.44463739 24.73148402 37.50364917 21.99076725 37.5625 19.25 C37.60570781 17.3893133 37.64932282 15.52863602 37.69335938 13.66796875 C37.80105894 9.11207388 37.90030868 4.5561053 38 0 C43.94 0 49.88 0 56 0 C56.1154013 5.65722816 56.21474767 11.31030172 56.2746582 16.96777344 C56.29965487 18.88816232 56.33366412 20.80845751 56.37719727 22.72851562 C56.86320601 44.73041731 56.86320601 44.73041731 49.21411133 52.90966797 C42.4796527 59.39425976 33.9743569 59.88600701 25 60 C17.38508914 59.55497274 11.223994 57.7807462 6 52 C0.86373628 44.10987917 -0.16109336 36.83702446 -0.09765625 27.5390625 C-0.0962413 26.74849457 -0.09482635 25.95792664 -0.09336853 25.1434021 C-0.08780504 22.63722834 -0.07525944 20.13114642 -0.0625 17.625 C-0.05748028 15.91797005 -0.0529182 14.21093868 -0.04882812 12.50390625 C-0.03870171 8.3358743 -0.01911945 4.16803904 0 0 Z " fill="#000000" transform="translate(401,74)"/>
<path d="M0 0 C15.84 0 31.68 0 48 0 C48 3.96 48 7.92 48 12 C47 13 47 13 44.22436523 13.11352539 C43.01466064 13.10828857 41.80495605 13.10305176 40.55859375 13.09765625 C39.25341797 13.09443359 37.94824219 13.09121094 36.60351562 13.08789062 C35.2148431 13.07953401 33.82617123 13.07106905 32.4375 13.0625 C31.04492344 13.05748666 29.65234519 13.05292347 28.25976562 13.04882812 C24.8398013 13.03699434 21.41992156 13.0205088 18 13 C18 15.97 18 18.94 18 22 C27.24 22 36.48 22 46 22 C46 25.96 46 29.92 46 34 C37.09 34 28.18 34 19 34 C18.67 37.63 18.34 41.26 18 45 C19.35532837 44.94670532 19.35532837 44.94670532 20.73803711 44.89233398 C24.07937816 44.76338203 27.42082359 44.63902513 30.76245117 44.51782227 C32.21076301 44.46433763 33.65900775 44.40900341 35.10717773 44.35180664 C37.18458582 44.27007488 39.2621417 44.19492232 41.33984375 44.12109375 C42.59144287 44.0739624 43.84304199 44.02683105 45.13256836 43.97827148 C48 44 48 44 49 45 C49.0989294 47.16480797 49.129711 49.33293785 49.125 51.5 C49.12886719 53.27890625 49.12886719 53.27890625 49.1328125 55.09375 C49 58 49 58 48 59 C46.49581261 59.09311889 44.98728644 59.11746028 43.48022461 59.11352539 C42.50581421 59.11340454 41.53140381 59.11328369 40.52746582 59.11315918 C39.49617554 59.10804321 38.46488525 59.10292725 37.40234375 59.09765625 C35.98846375 59.09614563 35.98846375 59.09614563 34.54602051 59.09460449 C31.00983471 59.08935477 27.47366619 59.07539364 23.9375 59.0625 C16.038125 59.041875 8.13875 59.02125 0 59 C0 39.53 0 20.06 0 0 Z " fill="#000000" transform="translate(904,74)"/>
<path d="M0 0 C3.20546278 3.2997411 4.96485514 6.38587036 5.375 11 C5.125 13.1875 5.125 13.1875 4.125 14.1875 C1.50025966 14.42179886 -1.05794482 14.55828338 -3.6875 14.625 C-4.41259766 14.67076172 -5.13769531 14.71652344 -5.88476562 14.76367188 C-8.01953125 14.80859375 -8.01953125 14.80859375 -11.875 14.1875 C-14.08984375 11.18359375 -14.08984375 11.18359375 -15.875 8.1875 C-18.21896284 7.4695445 -18.21896284 7.4695445 -20.625 7.8125 C-21.82382812 7.89371094 -21.82382812 7.89371094 -23.046875 7.9765625 C-23.65015625 8.04617187 -24.2534375 8.11578125 -24.875 8.1875 C-25.205 9.1775 -25.535 10.1675 -25.875 11.1875 C-25.07751901 13.34508225 -25.07751901 13.34508225 -23.05249023 13.88598633 C-22.27075439 14.09505615 -21.48901855 14.30412598 -20.68359375 14.51953125 C-19.82056641 14.76123047 -18.95753906 15.00292969 -18.06835938 15.25195312 C-16.25954535 15.74293525 -14.44967476 16.23004471 -12.63867188 16.71289062 C-5.84713451 18.62536345 0.6237044 20.96002181 5.0625 26.6875 C7.65270321 32.78209578 7.32097357 38.0124974 5.125 44.1875 C2.01657911 49.28805803 -1.80303744 53.00732194 -7.5859375 54.7265625 C-17.3881897 56.70039486 -27.54934149 57.03366235 -36.75 52.5625 C-41.672328 48.82153072 -44.77079333 44.3784094 -45.6875 38.1875 C-45.749375 37.1975 -45.81125 36.2075 -45.875 35.1875 C-42.40787889 34.03179296 -39.3335044 33.85914707 -35.6875 33.625 C-34.41519531 33.54121094 -33.14289062 33.45742187 -31.83203125 33.37109375 C-30.85621094 33.31050781 -29.88039063 33.24992187 -28.875 33.1875 C-25.875 38.9375 -25.875 38.9375 -25.875 41.1875 C-22.18016081 42.36984854 -18.73146386 42.4679701 -14.875 42.1875 C-12.93130262 40.83320159 -12.93130262 40.83320159 -11.875 39.1875 C-12.24153497 36.70982733 -12.24153497 36.70982733 -13.875 34.1875 C-16.61736259 32.7642682 -19.52926857 32.00504529 -22.5 31.1875 C-29.75129486 29.13276736 -36.89731311 26.8375678 -41.8125 20.8125 C-43.7566496 16.00930687 -44.39316786 12.02897712 -42.8125 7.0625 C-40.39250574 1.45202004 -36.39016618 -1.41073254 -30.875 -3.625 C-20.48026203 -6.69776882 -9.17826045 -5.78629463 0 0 Z " fill="#000000" transform="translate(701.875,77.8125)"/>
<path d="M0 0 C6.6 0 13.2 0 20 0 C22.35310669 6.16865462 24.70069461 12.33937224 27.04345703 18.51196289 C27.83918814 20.60627178 28.63635684 22.7000351 29.43505859 24.79321289 C37.94507567 47.10138656 37.94507567 47.10138656 41 58 C40 59 40 59 38.23413086 59.11352539 C37.48526611 59.10828857 36.73640137 59.10305176 35.96484375 59.09765625 C35.15595703 59.09443359 34.34707031 59.09121094 33.51367188 59.08789062 C32.66353516 59.07951172 31.81339844 59.07113281 30.9375 59.0625 C30.08349609 59.05798828 29.22949219 59.05347656 28.34960938 59.04882812 C26.23304337 59.03700373 24.11651315 59.01906769 22 59 C21.01 55.7 20.02 52.4 19 49 C12.4 49 5.8 49 -1 49 C-1.66 51.97 -2.32 54.94 -3 58 C-4 59 -4 59 -5.76586914 59.11352539 C-6.51473389 59.10828857 -7.26359863 59.10305176 -8.03515625 59.09765625 C-8.84404297 59.09443359 -9.65292969 59.09121094 -10.48632812 59.08789062 C-11.33646484 59.07951172 -12.18660156 59.07113281 -13.0625 59.0625 C-13.91650391 59.05798828 -14.77050781 59.05347656 -15.65039062 59.04882812 C-17.76695663 59.03700373 -19.88348685 59.01906769 -22 59 C-21.38342604 55.55272133 -20.50960197 52.39902809 -19.28173828 49.12133789 C-18.93112335 48.1800856 -18.58050842 47.23883331 -18.2192688 46.26905823 C-17.65053543 44.76108925 -17.65053543 44.76108925 -17.0703125 43.22265625 C-16.67931366 42.17855087 -16.28831482 41.1344455 -15.88546753 40.05870056 C-15.05848724 37.85329276 -14.22959433 35.64860134 -13.39892578 33.44458008 C-12.13169316 30.08026932 -10.87205672 26.71318596 -9.61328125 23.34570312 C-8.80774611 21.20035015 -8.00177102 19.05516229 -7.1953125 16.91015625 C-6.82020538 15.90686783 -6.44509827 14.90357941 -6.05862427 13.86988831 C-5.52324539 12.45328163 -5.52324539 12.45328163 -4.97705078 11.00805664 C-4.51191574 9.77159142 -4.51191574 9.77159142 -4.03738403 8.51014709 C-2.83817033 5.60842248 -1.40414524 2.80829048 0 0 Z M9 16 C8.15960114 18.58122508 7.32749444 21.16463901 6.5 23.75 C6.26152344 24.47960937 6.02304687 25.20921875 5.77734375 25.9609375 C5.55175781 26.66992188 5.32617188 27.37890625 5.09375 28.109375 C4.88427734 28.75874023 4.67480469 29.40810547 4.45898438 30.07714844 C3.84521532 32.31897028 3.84521532 32.31897028 4 36 C7.63 36 11.26 36 15 36 C13.73163421 29.17033804 12.111722 22.61672893 10 16 C9.67 16 9.34 16 9 16 Z " fill="#000000" transform="translate(356,74)"/>
<path d="M0 0 C6.27 0 12.54 0 19 0 C19.77085937 2.56394531 20.54171875 5.12789063 21.3359375 7.76953125 C22.08604303 10.25207325 22.83785941 12.73409101 23.58984375 15.21606445 C24.1114934 16.94110924 24.63136307 18.66669334 25.14941406 20.39282227 C25.89440955 22.87399978 26.64578732 25.3531666 27.3984375 27.83203125 C27.743871 28.98998955 27.743871 28.98998955 28.09628296 30.17134094 C29.10851689 33.48533823 30.06415372 36.09623058 32 39 C33.22811197 35.19589526 34.45485434 31.39135167 35.68041992 27.58642578 C36.2986205 25.66806987 36.91785312 23.75004664 37.53710938 21.83203125 C39.57603272 15.49976525 41.58036298 9.16699866 43.41088867 2.77099609 C44 1 44 1 45 0 C46.34267413 -0.08631874 47.68974322 -0.10706473 49.03515625 -0.09765625 C49.84404297 -0.09443359 50.65292969 -0.09121094 51.48632812 -0.08789062 C52.33646484 -0.07951172 53.18660156 -0.07113281 54.0625 -0.0625 C54.91650391 -0.05798828 55.77050781 -0.05347656 56.65039062 -0.04882812 C58.76695663 -0.03700373 60.88348685 -0.01906769 63 0 C62.38407547 3.45236917 61.50594214 6.60043146 60.26586914 9.87866211 C59.91202652 10.8199144 59.5581839 11.76116669 59.19361877 12.73094177 C58.81132614 13.73625443 58.42903351 14.74156708 58.03515625 15.77734375 C57.64178574 16.82144913 57.24841522 17.8655545 56.84312439 18.94129944 C55.58653821 22.27474658 54.32475483 25.60619572 53.0625 28.9375 C51.80475488 32.26557974 50.54810601 35.59406862 49.29258728 38.92298889 C48.51167339 40.99259868 47.72931493 43.06166413 46.94532776 45.13011169 C46.58833298 46.07451614 46.2313382 47.01892059 45.86352539 47.99194336 C45.55121475 48.81625351 45.23890411 49.64056366 44.91712952 50.48985291 C43.88802056 53.3064833 42.94828646 56.15514063 42 59 C35.07 59 28.14 59 21 59 C19.35451172 54.57013672 19.35451172 54.57013672 17.67578125 50.05078125 C16.59693795 47.14796481 15.51784102 44.24524277 14.4387207 41.3425293 C13.69659432 39.34588276 12.95472607 37.34914026 12.21313477 35.35229492 C11.13888544 32.4598623 10.0637092 29.56777583 8.98828125 26.67578125 C8.64113068 25.74089874 8.2939801 24.80601624 7.93630981 23.84280396 C5.63108463 17.64910473 3.26086579 11.48666981 0.80151367 5.35229492 C0 3 0 3 0 0 Z " fill="#000000" transform="translate(275,74)"/>
<path d="M0 0 C18.15 0 36.3 0 55 0 C55 4.95 55 9.9 55 15 C51.6717269 16.66413655 48.00266027 15.81867406 44.375 15.5625 C43.57320312 15.51029297 42.77140625 15.45808594 41.9453125 15.40429688 C39.96320897 15.27451629 37.98155501 15.13790265 36 15 C36.24339111 16.21755981 36.24339111 16.21755981 36.49169922 17.4597168 C37.08026892 21.55906803 37.14360691 25.5105659 37.1328125 29.64453125 C37.13376923 30.45492355 37.13472595 31.26531586 37.13571167 32.1002655 C37.13638894 33.80211465 37.1345664 35.50396644 37.13037109 37.20581055 C37.12498144 39.82150984 37.13034917 42.43704013 37.13671875 45.05273438 C37.13605857 46.70833371 37.13477866 48.36393295 37.1328125 50.01953125 C37.13483673 50.80487747 37.13686096 51.59022369 37.13894653 52.39936829 C37.11497447 57.88502553 37.11497447 57.88502553 36 59 C33.15664952 59.09986975 30.34302837 59.13877881 27.5 59.125 C26.30310547 59.13080078 26.30310547 59.13080078 25.08203125 59.13671875 C19.12660767 59.12660767 19.12660767 59.12660767 18 58 C17.90731001 56.64905018 17.88252674 55.29332909 17.88647461 53.93920898 C17.88655014 53.07839218 17.88662567 52.21757538 17.88670349 51.33067322 C17.89186478 50.39526199 17.89702606 49.45985077 17.90234375 48.49609375 C17.9037587 47.54307877 17.90517365 46.59006378 17.90663147 45.60816956 C17.91224848 42.55124835 17.92480384 39.49439923 17.9375 36.4375 C17.94251281 34.37044376 17.94707609 32.30338638 17.95117188 30.23632812 C17.96222344 25.15752412 17.97949945 20.0787743 18 15 C12.06 15 6.12 15 0 15 C0 10.05 0 5.1 0 0 Z " fill="#000000" transform="translate(573,74)"/>
<path d="M0 0 C18.15 0 36.3 0 55 0 C55 4.95 55 9.9 55 15 C50.85614558 16.0359636 47.43468682 15.90660941 43.25 15.5625 C42.55261719 15.51029297 41.85523438 15.45808594 41.13671875 15.40429688 C39.42403797 15.27525928 37.71194934 15.13840386 36 15 C36.16233124 15.57712234 36.32466248 16.15424469 36.49191284 16.74885559 C36.98354335 18.92708675 37.12679287 20.79159965 37.12939453 23.01831055 C37.13254669 23.79559006 37.13569885 24.57286957 37.13894653 25.373703 C37.1369223 26.2029982 37.13489807 27.0322934 37.1328125 27.88671875 C37.13376923 28.74433304 37.13472595 29.60194733 37.13571167 30.48554993 C37.13639094 32.29350864 37.13455431 34.10146982 37.13037109 35.90942383 C37.12499958 38.6877178 37.1303347 41.46585155 37.13671875 44.24414062 C37.13605831 46.00000036 37.13477786 47.75585999 37.1328125 49.51171875 C37.13483673 50.34708664 37.13686096 51.18245453 37.13894653 52.0431366 C37.11496365 57.88503635 37.11496365 57.88503635 36 59 C33.13732433 59.07325168 30.299281 59.09238205 27.4375 59.0625 C26.63119141 59.05798828 25.82488281 59.05347656 24.99414062 59.04882812 C22.99606244 59.03700518 20.99802217 59.01906914 19 59 C17.76543107 54.29034815 17.96360624 49.79957481 18.12109375 44.98046875 C18.14470474 44.12189774 18.16831573 43.26332672 18.19264221 42.3787384 C18.26895088 39.64814354 18.35311548 36.91785604 18.4375 34.1875 C18.49075356 32.33139503 18.54349371 30.47527526 18.59570312 28.61914062 C18.72356085 24.07917673 18.86204705 19.53971319 19 15 C12.73 15 6.46 15 0 15 C0 10.05 0 5.1 0 0 Z " fill="#000000" transform="translate(66,74)"/>
<path d="M0 0 C18.15 0 36.3 0 55 0 C55 4.95 55 9.9 55 15 C48.73 15 42.46 15 36 15 C36 29.52 36 44.04 36 59 C30.39 59 24.78 59 19 59 C17.17557627 57.17557627 17.87133119 54.6489616 17.86105347 52.22125244 C17.8630777 51.41089539 17.86510193 50.60053833 17.8671875 49.765625 C17.86575241 48.52036041 17.86575241 48.52036041 17.86428833 47.24993896 C17.86360622 45.48791427 17.86546262 43.72588709 17.86962891 41.96386719 C17.87494986 39.27533244 17.86969897 36.58696683 17.86328125 33.8984375 C17.86394256 32.18749963 17.8652248 30.47656187 17.8671875 28.765625 C17.86516327 27.96336487 17.86313904 27.16110474 17.86105347 26.33453369 C17.87734046 22.42221995 18.03764361 18.82075557 19 15 C17.71222656 15.08378906 16.42445313 15.16757813 15.09765625 15.25390625 C13.41928773 15.35704621 11.74090136 15.45989584 10.0625 15.5625 C9.21236328 15.61857422 8.36222656 15.67464844 7.48632812 15.73242188 C6.67744141 15.78076172 5.86855469 15.82910156 5.03515625 15.87890625 C4.2862915 15.9260376 3.53742676 15.97316895 2.76586914 16.02172852 C1 16 1 16 0 15 C0 10.05 0 5.1 0 0 Z " fill="#000000" transform="translate(516,74)"/>
<path d="M0 0 C17.82 0 35.64 0 54 0 C54 4.95 54 9.9 54 15 C48.06 15 42.12 15 36 15 C36 29.52 36 44.04 36 59 C30.39 59 24.78 59 19 59 C18 58 18 58 17.87974548 56.24729919 C17.8830764 55.10479454 17.8830764 55.10479454 17.88647461 53.93920898 C17.88655014 53.07839218 17.88662567 52.21757538 17.88670349 51.33067322 C17.89186478 50.39526199 17.89702606 49.45985077 17.90234375 48.49609375 C17.9037587 47.54307877 17.90517365 46.59006378 17.90663147 45.60816956 C17.91224848 42.55124835 17.92480384 39.49439923 17.9375 36.4375 C17.94251281 34.37044376 17.94707609 32.30338638 17.95117188 30.23632812 C17.96222344 25.15752412 17.97949945 20.0787743 18 15 C16.17662109 15.12568359 16.17662109 15.12568359 14.31640625 15.25390625 C12.73178879 15.35704703 11.14715235 15.45989661 9.5625 15.5625 C8.35883789 15.64661133 8.35883789 15.64661133 7.13085938 15.73242188 C5.08937889 15.8616295 3.04453631 15.9351273 1 16 C0.67 15.67 0.34 15.34 0 15 C0 10.05 0 5.1 0 0 Z " fill="#000000" transform="translate(713,74)"/>
<path d="M0 0 C5.94 0 11.88 0 18 0 C19.15609707 2.31219413 19.09085101 3.51730696 19.02172852 6.08251953 C18.99158409 7.34360031 18.99158409 7.34360031 18.96083069 8.63015747 C18.92027809 9.99272171 18.92027809 9.99272171 18.87890625 11.3828125 C18.85529526 12.31221649 18.83168427 13.24162048 18.80735779 14.19918823 C18.7306391 17.17461106 18.64665009 20.14977896 18.5625 23.125 C18.50928753 25.13931034 18.45654708 27.15363322 18.40429688 29.16796875 C18.27501284 34.11214132 18.13920707 39.05609727 18 44 C19.21901001 43.94670532 19.21901001 43.94670532 20.46264648 43.89233398 C24.12072489 43.73538327 27.77908282 43.58633566 31.4375 43.4375 C32.71689453 43.38142578 33.99628906 43.32535156 35.31445312 43.26757812 C36.52939453 43.21923828 37.74433594 43.17089844 38.99609375 43.12109375 C40.12200928 43.0739624 41.2479248 43.02683105 42.40795898 42.97827148 C45 43 45 43 46 44 C46.09909302 46.33160055 46.12970504 48.66629942 46.125 51 C46.12886719 52.918125 46.12886719 52.918125 46.1328125 54.875 C46 58 46 58 45 59 C43.62390118 59.09795311 42.24286118 59.12798088 40.86328125 59.12939453 C39.54686646 59.13412277 39.54686646 59.13412277 38.20385742 59.13894653 C37.24970947 59.1369223 36.29556152 59.13489807 35.3125 59.1328125 C33.85324097 59.13424759 33.85324097 59.13424759 32.36450195 59.13571167 C30.303222 59.13639358 28.24193992 59.13453853 26.18066406 59.13037109 C23.01362312 59.125023 19.846724 59.13031572 16.6796875 59.13671875 C14.68229135 59.13605797 12.68489529 59.13477681 10.6875 59.1328125 C9.73335205 59.13483673 8.7792041 59.13686096 7.79614258 59.13894653 C6.91853271 59.13579437 6.04092285 59.13264221 5.13671875 59.12939453 C4.36030029 59.12859894 3.58388184 59.12780334 2.78393555 59.12698364 C1 59 1 59 0 58 C-0.09376053 56.18944975 -0.1174411 54.37522799 -0.11352539 52.56225586 C-0.11344986 51.40112778 -0.11337433 50.23999969 -0.11329651 49.04368591 C-0.10813522 47.780168 -0.10297394 46.51665009 -0.09765625 45.21484375 C-0.0962413 43.92888809 -0.09482635 42.64293243 -0.09336853 41.31800842 C-0.08954418 37.89356557 -0.07971462 34.46916491 -0.06866455 31.04473877 C-0.05844864 27.55261811 -0.05387053 24.06049066 -0.04882812 20.56835938 C-0.03809226 13.71222047 -0.02049614 6.8561166 0 0 Z " fill="#000000" transform="translate(469,74)"/>
</svg>
